HIERARCHY
ROOT Hips
{
	OFFSET 0.000000 0.000000 0.000000
	CHANNELS 6 Xposition Yposition Zposition Zrotation Yrotation Xrotation 
	JOINT LHipJoint
	{
		OFFSET 0.000000 0.000000 0.000000
		CHANNELS 3 Zrotation Yrotation Xrotation
		JOINT LeftUpLeg
		{
			OFFSET 1.363060 -1.794630 0.839290
			CHANNELS 3 Zrotation Yrotation Xrotation
			JOINT LeftLeg
			{
				OFFSET 2.448110 -6.726130 0.000000
				CHANNELS 3 Zrotation Yrotation Xrotation
				JOINT LeftFoot
				{
					OFFSET 2.562200 -7.039590 0.000000
					CHANNELS 3 Zrotation Yrotation Xrotation
					JOINT LeftToeBase
					{
						OFFSET 0.157640 -0.433110 2.322550
						CHANNELS 3 Zrotation Yrotation Xrotation
						End Site
						{
							OFFSET 0.000000 0.000000 0.000000
						}
					}
				}
			}
		}
	}
	JOINT RHipJoint
	{
		OFFSET 0.000000 0.000000 0.000000
		CHANNELS 3 Zrotation Yrotation Xrotation
		JOINT RightUpLeg
		{
			OFFSET -1.305520 -1.794630 0.839290
			CHANNELS 3 Zrotation Yrotation Xrotation
			JOINT RightLeg
			{
				OFFSET -2.542530 -6.985550 0.000000
				CHANNELS 3 Zrotation Yrotation Xrotation
				JOINT RightFoot
				{
					OFFSET -2.568260 -7.056230 0.000000
					CHANNELS 3 Zrotation Yrotation Xrotation
					JOINT RightToeBase
					{
						OFFSET -0.164730 -0.452590 2.363150
						CHANNELS 3 Zrotation Yrotation Xrotation
						End Site
						{
							OFFSET 0.000000 0.000000 0.000000
						}
					}
				}
			}
		}
	}
	JOINT LowerBack
	{
		OFFSET 0.000000 0.000000 0.000000
		CHANNELS 3 Zrotation Yrotation Xrotation
		JOINT Spine
		{
			OFFSET 0.028270 2.035590 -0.193380
			CHANNELS 3 Zrotation Yrotation Xrotation
			JOINT Spine1
			{
				OFFSET 0.056720 2.048850 -0.042750
				CHANNELS 3 Zrotation Yrotation Xrotation
				JOINT Neck
				{
					OFFSET 0.000000 0.000000 0.000000
					CHANNELS 3 Zrotation Yrotation Xrotation
					JOINT Neck1
					{
						OFFSET -0.054170 1.746240 0.172020
						CHANNELS 3 Zrotation Yrotation Xrotation
						JOINT Head
						{
							OFFSET 0.104070 1.761360 -0.123970
							CHANNELS 3 Zrotation Yrotation Xrotation
							End Site
							{
								OFFSET 0.000000 0.000000 0.000000
							}
						}
					}
				}
				JOINT LeftShoulder
				{
					OFFSET 0.000000 0.000000 0.000000
					CHANNELS 3 Zrotation Yrotation Xrotation
					JOINT LeftArm
					{
						OFFSET 3.362410 1.200890 -0.311210
						CHANNELS 3 Zrotation Yrotation Xrotation
						JOINT LeftForeArm
						{
							OFFSET 4.983000 -0.000000 -0.000000
							CHANNELS 3 Zrotation Yrotation Xrotation
							JOINT LeftHand
							{
								OFFSET 3.483560 -0.000000 -0.000000
								CHANNELS 3 Zrotation Yrotation Xrotation
								JOINT LeftFingerBase
								{
									OFFSET 0.000000 0.000000 0.000000
									CHANNELS 3 Zrotation Yrotation Xrotation
									JOINT LeftHandIndex1
									{
										OFFSET 0.715260 -0.000000 -0.000000
										CHANNELS 3 Zrotation Yrotation Xrotation
										End Site
										{
											OFFSET 0.000000 0.000000 0.000000
										}
									}
								}
								JOINT LThumb
								{
									OFFSET 0.000000 0.000000 0.000000
									CHANNELS 3 Zrotation Yrotation Xrotation
									End Site
									{
										OFFSET 0.000000 0.000000 0.000000
									}
								}
							}
						}
					}
				}
				JOINT RightShoulder
				{
					OFFSET 0.000000 0.000000 0.000000
					CHANNELS 3 Zrotation Yrotation Xrotation
					JOINT RightArm
					{
						OFFSET -3.136600 1.374050 -0.404650
						CHANNELS 3 Zrotation Yrotation Xrotation
						JOINT RightForeArm
						{
							OFFSET -5.241900 -0.000000 -0.000000
							CHANNELS 3 Zrotation Yrotation Xrotation
							JOINT RightHand
							{
								OFFSET -3.444170 -0.000000 -0.000000
								CHANNELS 3 Zrotation Yrotation Xrotation
								JOINT RightFingerBase
								{
									OFFSET 0.000000 0.000000 0.000000
									CHANNELS 3 Zrotation Yrotation Xrotation
									JOINT RightHandIndex1
									{
										OFFSET -0.622530 -0.000000 -0.000000
										CHANNELS 3 Zrotation Yrotation Xrotation
										End Site
										{
											OFFSET 0.000000 0.000000 0.000000
										}
									}
								}
								JOINT RThumb
								{
									OFFSET 0.000000 0.000000 0.000000
									CHANNELS 3 Zrotation Yrotation Xrotation
									End Site
									{
										OFFSET 0.000000 0.000000 0.000000
									}
								}
							}
						}
					}
				}
			}
		}
	}
}
MOTION
Frames: 11
Frame Time: 0.008333
11.398745 18.335501 15.222004 -20.903424 80.790964 -4.917552 -2.565353 -2.305384 -2.951790 -1.154860 -9.401227 -40.200693 2.391786 11.089374 30.885808 -0.676419 8.414633 7.759703 0.101700 2.056800 5.662600 1.918160 0.816155 -0.643836 15.431557 22.561237 -19.521621 -4.811499 -12.182647 38.528426 0.455154 19.339308 -1.952379 -0.231400 -3.095800 8.545600 1.970861 -3.679770 11.909374 2.225311 -4.326545 -1.984348 5.587332 -2.137813 0.295710 -10.051829 -16.741832 -4.903801 16.149909 -24.564208 15.518462 3.573500 -11.440000 6.942000 10.765176 -2.592653 1.901744 -92.044772 -6.719966 41.184022 46.720116 -52.721938 -19.776825 -0.724469 2.134361 -22.789630 21.217378 11.794973 3.595100 -7.125000 0.000000 0.000000 -5.134400 39.962000 0.639600 -8.445267 1.931898 0.900742 47.508239 5.054578 83.292218 -64.362994 56.946694 -36.474479 1.223236 -1.136978 24.334624 -19.720431 -12.424546 4.537400 7.125000 0.000000 0.000000 5.296500 -42.491300 0.328900 
11.227914 18.332316 15.284327 -21.025149 81.180523 -4.964351 -2.510181 -2.311618 -2.986468 -1.689783 -9.070502 -40.943049 2.633069 11.440485 32.068610 -0.630029 8.003440 7.716035 0.105600 2.095600 5.770000 1.919074 0.831785 -0.653079 15.503473 22.351622 -20.098989 -4.794905 -12.168897 38.467588 0.354708 18.816825 -2.779257 -0.190400 -2.810400 7.751400 1.989418 -3.648793 12.121209 2.103425 -4.274720 -1.901270 5.378710 -2.121263 0.303479 -9.985030 -16.756546 -4.836285 16.441689 -24.622198 15.164702 3.664900 -11.476000 6.859100 10.747554 -2.543614 1.897872 -91.969351 -6.737614 41.187181 46.917789 -52.796110 -19.895929 -0.737549 2.124654 -23.072400 20.918549 11.731345 3.520100 -7.125000 0.000000 0.000000 -5.383400 39.880200 0.681700 -8.440292 1.834157 0.923846 46.286427 6.646703 84.163022 -65.951555 57.324367 -37.853633 1.244159 -1.145725 24.415467 -19.487319 -12.411337 4.485200 7.125000 0.000000 0.000000 5.482500 -42.460100 0.344700 
11.059632 18.327326 15.347287 -21.471598 81.592196 -5.353997 -2.441067 -2.319137 -3.023863 -2.237455 -8.691156 -41.731447 2.902767 11.810497 33.342697 -0.579760 7.553013 7.713655 0.111000 2.147700 5.914100 1.922054 0.843981 -0.658720 15.596325 22.071256 -20.732766 -4.787763 -12.167050 38.447702 0.278796 18.422941 -3.416392 -0.161800 -2.591500 7.143400 2.053005 -3.615799 12.313697 1.984630 -4.217381 -1.821588 5.159510 -2.101498 0.313002 -9.941300 -16.778120 -4.755236 16.718575 -24.687547 14.847650 3.754300 -11.516200 6.788500 10.730952 -2.492071 1.892109 -91.939192 -6.815837 41.201642 46.940124 -52.788393 -19.894330 -0.747657 2.116411 -23.257990 20.592897 11.687613 3.448300 -7.125000 0.000000 0.000000 -5.657500 39.817400 0.725400 -8.432183 1.734040 0.950234 45.052791 8.195574 84.923244 -67.507892 57.665214 -39.205889 1.264575 -1.160326 24.579931 -19.294064 -12.275709 4.396400 7.125000 0.000000 0.000000 5.609500 -42.301000 0.374800 
10.893472 18.320637 15.410565 -22.289211 82.001640 -6.139781 -2.359315 -2.326982 -3.062005 -2.765412 -8.287675 -42.526795 3.200101 12.194756 34.697311 -0.526482 7.059230 7.740018 0.116800 2.203800 6.069300 1.928147 0.852041 -0.661223 15.720869 21.734463 -21.416289 -4.791950 -12.179499 38.477250 0.228679 18.171840 -3.853739 -0.144500 -2.449800 6.750600 2.156224 -3.583141 12.499986 1.872014 -4.155976 -1.744308 4.942419 -2.079850 0.320999 -9.918783 -16.800816 -4.668231 16.960328 -24.749406 14.573981 3.836200 -11.555500 6.729200 10.715600 -2.437171 1.884737 -91.986981 -6.943757 41.177942 46.801556 -52.707191 -19.782355 -0.755238 2.110115 -23.299814 20.236574 11.679688 3.384700 -7.125000 0.000000 0.000000 -5.960500 39.789500 0.768700 -8.419997 1.630481 0.980447 43.788667 9.736828 85.599778 -69.029949 57.972451 -40.529592 1.283730 -1.180087 24.774761 -19.104088 -12.026487 4.266400 7.125000 0.000000 0.000000 5.713000 -42.019100 0.421700 
10.729224 18.312674 15.474587 -23.466552 82.372077 -7.317150 -2.267012 -2.333899 -3.098692 -3.235737 -7.883137 -43.289530 3.524869 12.589988 36.126211 -0.470980 6.514279 7.779185 0.120800 2.241000 6.172100 1.937457 0.855290 -0.661306 15.886946 21.372923 -22.131364 -4.807259 -12.205488 38.554561 0.205707 18.064189 -4.069657 -0.142000 -2.428900 6.692700 2.278855 -3.548657 12.694251 1.768220 -4.087626 -1.669272 4.744955 -2.055956 0.322555 -9.934848 -16.815495 -4.577100 17.167878 -24.795796 14.347291 3.914800 -11.588200 6.683100 10.700879 -2.379592 1.876601 -92.122841 -7.084372 41.067728 46.553341 -52.575935 -19.595496 -0.760758 2.105370 -23.171053 19.841679 11.691688 3.321800 -7.125000 0.000000 0.000000 -6.296000 39.778800 0.814000 -8.402472 1.521887 1.014901 42.485662 11.317193 86.214800 -70.486601 58.245800 -41.799293 1.300814 -1.203283 24.936892 -18.895489 -11.691283 4.100800 7.125000 0.000000 0.000000 5.818900 -41.641400 0.483900 
10.566781 18.303862 15.539246 -25.021966 82.671609 -8.915219 -2.165972 -2.339750 -3.132679 -3.608681 -7.494641 -43.980317 3.877721 12.993922 37.625917 -0.414561 5.920403 7.823027 0.121200 2.244400 6.181600 1.950365 0.852140 -0.659232 16.115834 21.010230 -22.849835 -4.831849 -12.242618 38.670526 0.208307 18.086571 -4.073207 -0.154800 -2.535600 6.988300 2.418110 -3.508694 12.909303 1.671909 -4.006143 -1.593635 4.565464 -2.027275 0.316409 -9.968760 -16.819040 -4.485903 17.328461 -24.820910 14.159918 3.984300 -11.611700 6.642600 10.685907 -2.319449 1.868265 -92.345901 -7.209942 40.847906 46.240820 -52.415098 -19.365476 -0.763624 2.101767 -22.866617 19.422113 11.689722 3.250300 -7.125000 0.000000 0.000000 -6.646900 39.751500 0.864300 -8.377971 1.407853 1.053769 41.147701 12.970909 86.770034 -71.851179 58.486270 -42.991026 1.313546 -1.228602 25.057974 -18.575773 -11.295534 3.890500 7.125000 0.000000 0.000000 6.015800 -41.186700 0.568100 
10.406355 18.294731 15.604966 -26.801016 82.869789 -10.781746 -2.060985 -2.343027 -3.161879 -3.862390 -7.131186 -44.572593 4.259738 13.406000 39.197370 -0.358422 5.279739 7.859072 0.114400 2.180400 6.004500 1.964627 0.842867 -0.656304 16.412117 20.678085 -23.536146 -4.862248 -12.285820 38.808847 0.232084 18.207350 -3.892604 -0.185000 -2.770100 7.639300 2.544190 -3.459150 13.144788 1.584187 -3.908025 -1.516319 4.419959 -1.993090 0.307454 -10.024097 -16.805983 -4.396493 17.436937 -24.816486 14.010218 4.044700 -11.622200 6.605300 10.669961 -2.257113 1.860675 -92.652952 -7.289079 40.504212 45.912494 -52.249273 -19.129706 -0.762553 2.100224 -22.434291 19.059373 11.659922 3.179400 -7.125000 0.000000 0.000000 -6.943400 39.698200 0.912400 -8.345214 1.288108 1.097300 39.770176 14.721262 87.264949 -73.111230 58.697003 -44.093398 1.321556 -1.255208 25.151095 -18.135816 -10.859238 3.644900 7.125000 0.000000 0.000000 6.314200 -40.677900 0.676000 
10.247946 18.285388 15.671961 -28.597951 82.971012 -12.709329 -1.958621 -2.342527 -3.185215 -3.995578 -6.814150 -45.056676 4.672049 13.825687 40.840732 -0.305440 4.621684 7.883134 0.102500 2.064900 5.685000 1.977300 0.829325 -0.654143 16.764664 20.387474 -24.166255 -4.894384 -12.329754 38.951735 0.270807 18.385309 -3.570731 -0.236200 -3.127600 8.634100 2.641693 -3.392467 13.395002 1.497319 -3.786701 -1.437022 4.295542 -1.949828 0.298624 -10.075518 -16.787266 -4.314130 17.495164 -24.798945 13.897297 4.090200 -11.626400 6.570500 10.651662 -2.193377 1.854353 -93.008942 -7.304789 40.077956 45.612117 -52.100497 -18.921599 -0.756601 2.101574 -21.938473 18.842318 11.613977 3.128300 -7.125000 0.000000 0.000000 -7.112900 39.636800 0.945700 -8.304201 1.165664 1.144451 38.379542 16.546489 87.667184 -74.255331 58.879563 -45.093656 1.323609 -1.282364 25.246307 -17.538771 -10.392969 3.365300 7.125000 0.000000 0.000000 6.747300 -40.125900 0.815000 
10.091873 18.275620 15.740124 -30.270342 82.989488 -14.544795 -1.862141 -2.337195 -3.202272 -4.016071 -6.553405 -45.439995 5.115155 14.251770 42.554034 -0.257375 3.968465 7.893632 0.087300 1.905300 5.244000 1.987507 0.813565 -0.653395 17.161210 20.150744 -24.724055 -4.924278 -12.369208 39.081331 0.314572 18.571681 -3.187653 -0.303000 -3.539100 9.783500 2.698062 -3.313233 13.646258 1.410997 -3.651026 -1.359654 4.193777 -1.901383 0.291626 -10.121398 -16.763115 -4.240421 17.506150 -24.769527 13.824170 4.120900 -11.624300 6.539400 10.630618 -2.129283 1.849966 -93.397070 -7.239261 39.588706 45.363197 -51.982379 -18.759928 -0.744640 2.106642 -21.444118 18.842909 11.549770 3.107500 -7.125000 0.000000 0.000000 -7.096700 39.568800 0.955500 -8.255174 1.042881 1.194353 36.989960 18.427124 87.961863 -75.288383 59.036869 -45.993123 1.318943 -1.310574 25.382289 -16.773799 -9.873238 3.048400 7.125000 0.000000 0.000000 7.318000 -39.508400 0.996600 
9.938348 18.265321 15.809772 -31.677749 82.953523 -16.137343 -1.774499 -2.326168 -3.213139 -3.955997 -6.349789 -45.741185 5.588121 14.681270 44.329959 -0.216324 3.357530 7.896688 0.070500 1.713500 4.714600 1.994794 0.798285 -0.654995 17.570802 19.984740 -25.201488 -4.949512 -12.400816 39.187145 0.358408 18.746234 -2.785151 -0.389700 -4.008700 11.101100 2.707076 -3.222325 13.881172 1.319303 -3.505990 -1.286417 4.101361 -1.849381 0.290739 -10.157941 -16.741066 -4.184403 17.483414 -24.741727 13.798080 4.137000 -11.620400 6.519200 10.606099 -2.066275 1.847863 -93.782768 -7.092093 39.082559 45.179161 -51.902308 -18.655834 -0.726198 2.115714 -21.037963 19.121161 11.478880 3.130000 -7.125000 0.000000 0.000000 -6.848000 39.509800 0.931600 -8.199928 0.923516 1.245026 35.632548 20.315657 88.117060 -76.204461 59.169583 -46.784134 1.306914 -1.338962 25.599013 -15.834362 -9.303355 2.702500 7.125000 0.000000 0.000000 8.029600 -38.832900 1.229200 
9.787902 18.254067 15.880695 -32.847513 82.907414 -17.496352 -1.696797 -2.311229 -3.219546 -3.850668 -6.206292 -45.986313 6.089226 15.109969 46.158846 -0.184583 2.834281 7.900672 0.054400 1.504600 4.138500 2.000356 0.784313 -0.658544 17.968227 19.887521 -25.606885 -4.967891 -12.423159 39.261609 0.392379 18.868986 -2.460592 -0.476800 -4.428400 12.285100 2.681420 -3.127031 14.075505 1.217978 -3.363099 -1.219629 3.998739 -1.798625 0.302380 -10.175795 -16.726556 -4.141590 17.440163 -24.724876 13.808939 4.140400 -11.619100 6.507800 10.578029 -2.006253 1.848112 -94.135457 -6.873490 38.601769 45.057759 -51.858300 -18.606350 -0.702118 2.127575 -20.762658 19.659749 11.407292 3.193900 -7.125000 0.000000 0.000000 -6.383800 39.465100 0.874900 -8.141129 0.810865 1.294209 34.337804 22.153613 88.110116 -77.021983 59.280445 -47.481559 1.288187 -1.366466 25.893125 -14.760730 -8.682365 2.342700 7.125000 0.000000 0.000000 8.844100 -38.105200 1.515600 
